<svg width="50" height="14" viewBox="0 0 50 14" fill="none" xmlns="http://www.w3.org/2000/svg">
<path d="M15.9791 11.944H14.6582C14.6246 11.9441 14.5913 11.9357 14.5607 11.9194C14.5301 11.9031 14.5029 11.8792 14.4811 11.8495C14.4599 11.8208 14.4444 11.787 14.4356 11.7506C14.4268 11.7142 14.4249 11.6761 14.4301 11.6387L15.5491 3.50221C15.5639 3.39782 15.6103 3.30302 15.68 3.23493C15.7497 3.16683 15.838 3.12993 15.929 3.13088H18.6959C19.6218 3.13088 20.3191 3.41101 20.7127 3.94098C21.0705 4.42316 21.1894 5.11231 21.0651 5.98876C20.9281 6.98671 20.5936 7.74685 20.0708 8.24787C19.5481 8.7489 18.8223 9.00419 17.9159 9.00419H17.0403C16.9492 9.00318 16.8607 9.04022 16.7911 9.10856C16.7215 9.17691 16.6753 9.27202 16.6609 9.37661L16.359 11.5716C16.3444 11.6762 16.2981 11.7713 16.2284 11.8396C16.1587 11.9079 16.0702 11.9449 15.9791 11.944ZM17.4749 4.89142C17.4202 4.89117 17.3673 4.91348 17.3254 4.95438C17.2835 4.99528 17.2555 5.05211 17.2463 5.11477L16.9534 7.24091H17.3711C18.1048 7.24091 18.8632 7.24091 19.0145 6.10234C19.0501 5.95264 19.0565 5.7956 19.0332 5.64266C19.01 5.48973 18.9577 5.34474 18.8801 5.21825C18.6365 4.8906 18.165 4.8906 17.6655 4.8906L17.4749 4.89142Z" fill="#28356A"/>
<path d="M22.9016 12.0849C22.1733 12.0849 21.6125 11.825 21.2335 11.3122C21.0095 10.9888 20.8492 10.6121 20.7639 10.2089C20.6787 9.80564 20.6706 9.38557 20.7402 8.97828C20.8372 8.14213 21.1889 7.37408 21.7314 6.81347C22.274 6.25287 22.9715 5.93684 23.6974 5.92272C24.0065 5.91616 24.3146 5.96319 24.6118 6.06224C24.8704 6.13895 25.0994 6.31409 25.2623 6.55972L25.3549 6.71371L25.4136 6.28886C25.4228 6.22644 25.4507 6.16982 25.4924 6.12899C25.5341 6.08817 25.5868 6.06579 25.6413 6.06579H26.9661C26.9997 6.0657 27.0328 6.0741 27.0633 6.09042C27.0938 6.10673 27.1208 6.13057 27.1426 6.16026C27.1637 6.18903 27.1791 6.22278 27.1878 6.25919C27.1965 6.29559 27.1983 6.33376 27.1931 6.37105L26.4775 11.571C26.4628 11.6756 26.4165 11.7706 26.3468 11.8389C26.2771 11.9072 26.1887 11.9443 26.0976 11.9435H24.905C24.8715 11.9436 24.8384 11.9352 24.808 11.9189C24.7775 11.9026 24.7505 11.8789 24.7288 11.8493C24.7075 11.8204 24.6919 11.7864 24.683 11.7498C24.6741 11.7131 24.6722 11.6747 24.6773 11.6371L24.7365 11.2156L24.7351 11.2175C24.5949 11.3857 24.4357 11.5312 24.262 11.65C23.851 11.9359 23.3807 12.0863 22.9016 12.0849ZM24.0122 7.53364C23.6542 7.52674 23.3063 7.67121 23.0331 7.94017C22.7599 8.20913 22.5801 8.58425 22.5271 8.99576C22.4917 9.18052 22.4919 9.37212 22.5279 9.55674C22.5639 9.74136 22.6348 9.91439 22.7353 10.0633C22.8486 10.2034 22.9871 10.3127 23.1409 10.3834C23.2946 10.4542 23.4599 10.4848 23.625 10.4729C23.9835 10.4845 24.3333 10.3434 24.6086 10.0762C24.8838 9.80908 25.0656 9.43425 25.1197 9.02224C25.1525 8.83495 25.1495 8.64156 25.1108 8.45578C25.0721 8.27001 24.9987 8.09641 24.8958 7.94729C24.7835 7.80741 24.6462 7.69787 24.4936 7.6264C24.3409 7.55493 24.1766 7.52326 24.0122 7.53364Z" fill="#28356A"/>
<path d="M34.0234 6.0657H32.692C32.6294 6.06565 32.5678 6.08323 32.5123 6.11695C32.4569 6.15066 32.4093 6.19951 32.3737 6.25928L30.5371 9.36099L29.7587 6.38024C29.7343 6.2888 29.6853 6.20889 29.6188 6.15227C29.5524 6.09565 29.472 6.0653 29.3897 6.0657H28.0815C28.0451 6.06518 28.009 6.07482 27.9765 6.09381C27.9439 6.11279 27.9157 6.14057 27.8942 6.17482C27.8728 6.20907 27.8587 6.24879 27.8532 6.29066C27.8477 6.33253 27.8509 6.37532 27.8625 6.41546L29.3302 11.3506L27.9504 13.5824C27.926 13.6221 27.9115 13.669 27.9086 13.7177C27.9057 13.7664 27.9145 13.815 27.934 13.8583C27.9534 13.9016 27.9828 13.9377 28.0189 13.9627C28.055 13.9877 28.0963 14.0006 28.1384 13.9999H29.4681C29.53 14.0001 29.591 13.9831 29.646 13.9501C29.701 13.9172 29.7484 13.8694 29.7841 13.8107L34.2128 6.48099C34.2367 6.44116 34.2508 6.39442 34.2533 6.34591C34.2559 6.29741 34.2469 6.24902 34.2273 6.20607C34.2077 6.16313 34.1783 6.1273 34.1424 6.10254C34.1064 6.07777 34.0652 6.06502 34.0234 6.0657Z" fill="#28356A"/>
<path d="M35.8128 11.944H34.3928C34.3593 11.9441 34.3262 11.9357 34.2958 11.9194C34.2654 11.9032 34.2384 11.8794 34.2166 11.8498C34.1954 11.821 34.1799 11.7872 34.171 11.7508C34.1622 11.7144 34.1603 11.6761 34.1654 11.6387L35.2844 3.50221C35.2992 3.39784 35.3456 3.30305 35.4152 3.23495C35.4848 3.16685 35.5731 3.12994 35.6641 3.13088H38.4312C39.3572 3.13088 40.0545 3.41101 40.4475 3.94098C40.806 4.42398 40.9249 5.11313 40.7999 5.98876C40.663 6.98671 40.3284 7.74685 39.8057 8.24787C39.2829 8.7489 38.5569 9.00419 37.6505 9.00419H36.7754C36.6842 9.00312 36.5957 9.04012 36.526 9.10847C36.4564 9.17682 36.4101 9.27197 36.3957 9.37661L36.0783 11.6832C36.0682 11.7564 36.0358 11.8229 35.9871 11.8708C35.9384 11.9186 35.8766 11.9446 35.8128 11.944ZM37.2107 4.8917C37.1561 4.89098 37.1031 4.91311 37.0613 4.95407C37.0196 4.99502 36.9919 5.05206 36.9833 5.11477L36.6901 7.24091H37.1071C37.8408 7.24091 38.5995 7.24091 38.7505 6.10234C38.7861 5.95267 38.7926 5.79566 38.7694 5.64273C38.7463 5.4898 38.6941 5.34479 38.6166 5.21825C38.373 4.8906 37.9015 4.8906 37.402 4.8906L37.2107 4.8917Z" fill="#298FC2"/>
<path d="M42.6383 12.0849C41.9114 12.0849 41.3499 11.825 40.9703 11.3122C40.7463 10.9887 40.586 10.6121 40.5008 10.2089C40.4155 9.80562 40.4074 9.38557 40.4769 8.97828C40.5738 8.14215 40.9255 7.37411 41.468 6.8135C42.0105 6.25288 42.708 5.93685 43.4339 5.92272C43.7429 5.91617 44.051 5.96319 44.348 6.06224C44.6066 6.13901 44.8356 6.31413 44.9986 6.55972L45.0926 6.71371L45.1511 6.28886C45.1596 6.22632 45.1871 6.1694 45.2287 6.12846C45.2702 6.08752 45.3231 6.06528 45.3775 6.06579H46.7019C46.7355 6.06573 46.7687 6.07415 46.7993 6.09046C46.8298 6.10677 46.857 6.13058 46.8788 6.16026C46.9 6.18898 46.9156 6.2227 46.9245 6.25909C46.9333 6.29548 46.9353 6.33368 46.9303 6.37105L46.2142 11.571C46.1996 11.6756 46.1534 11.7706 46.0838 11.8389C46.0142 11.9072 45.9258 11.9443 45.8347 11.9435H44.6422C44.6086 11.9436 44.5753 11.9352 44.5448 11.919C44.5143 11.9027 44.4871 11.8789 44.4653 11.8493C44.444 11.8204 44.4285 11.7865 44.4196 11.7499C44.4108 11.7133 44.4089 11.6749 44.414 11.6374L44.473 11.2158L44.4716 11.2177C44.3314 11.386 44.1722 11.5315 43.9984 11.6502C43.5875 11.9361 43.1173 12.0864 42.6383 12.0849ZM43.7473 7.53364C43.3894 7.52709 43.0416 7.67169 42.7685 7.94058C42.4954 8.20947 42.3155 8.5844 42.2622 8.99576C42.227 9.18053 42.2274 9.37207 42.2634 9.55663C42.2994 9.7412 42.3701 9.91423 42.4704 10.0633C42.5836 10.2033 42.7221 10.3126 42.8758 10.3834C43.0295 10.4542 43.1948 10.4847 43.3599 10.4729C43.7184 10.4848 44.0684 10.3438 44.3437 10.0766C44.6191 9.80941 44.8009 9.4344 44.8548 9.02224C44.888 8.83495 44.8852 8.64142 44.8464 8.45556C44.8077 8.2697 44.734 8.09612 44.6307 7.94729C44.5184 7.80744 44.3811 7.69791 44.2285 7.62643C44.0759 7.55496 43.9116 7.52328 43.7473 7.53364Z" fill="#298FC2"/>
<path d="M48.2643 3.35424L47.1286 11.6387C47.1236 11.6767 47.1258 11.7155 47.1349 11.7524C47.1441 11.7893 47.16 11.8234 47.1816 11.8524C47.2033 11.8815 47.2301 11.9047 47.2602 11.9205C47.2903 11.9363 47.323 11.9443 47.356 11.944H48.4979C48.589 11.9448 48.6774 11.9077 48.747 11.8394C48.8167 11.7711 48.8631 11.6761 48.8778 11.5716L49.9977 3.43506C50.0026 3.39715 50.0003 3.35847 49.9911 3.32167C49.9818 3.28488 49.9658 3.25085 49.9442 3.22192C49.9226 3.19299 49.8958 3.16985 49.8657 3.15409C49.8357 3.13833 49.803 3.13032 49.7701 3.13062H48.4917C48.4372 3.13054 48.3844 3.15297 48.3427 3.19393C48.3011 3.23488 48.2733 3.2917 48.2643 3.35424Z" fill="#298FC2"/>
<path d="M2.93956 13.5263L3.151 11.9853L2.67994 11.9713H0.429199L1.99321 0.599337C1.99825 0.56436 2.01387 0.532623 2.03726 0.509846C2.06065 0.487069 2.09027 0.474749 2.12078 0.475105H5.91533C7.17533 0.475105 8.04461 0.775446 8.49969 1.36903C8.69999 1.62016 8.84239 1.92607 8.91366 2.25831C8.98332 2.66312 8.98427 3.07984 8.91648 3.48507L8.91155 3.52057V3.83347L9.1244 3.97162C9.33623 4.0909 9.51877 4.27031 9.65515 4.49327C9.79152 4.71623 9.87733 4.97555 9.90465 5.24725C9.95381 5.68215 9.93695 6.1237 9.85484 6.55183C9.77433 7.07171 9.6166 7.57136 9.38871 8.02841C9.20106 8.39439 8.94952 8.71063 8.65029 8.95674C8.34841 9.19702 8.01142 9.37142 7.65578 9.47142C7.24898 9.58593 6.83147 9.64097 6.41294 9.63524H6.11668C5.90568 9.63554 5.70144 9.72171 5.53942 9.87879C5.37895 10.036 5.27219 10.2548 5.23846 10.4956L5.21497 10.6343L4.84118 13.3505L4.82426 13.4501C4.82318 13.4722 4.81475 13.493 4.80077 13.508C4.78977 13.5183 4.77611 13.524 4.762 13.5241H2.93956" fill="#28356A"/>
<path d="M9.32427 3.55688C9.31299 3.6388 9.30077 3.7248 9.2855 3.8119C8.78508 6.75825 7.07282 7.77613 4.88621 7.77613H3.77188C3.64357 7.77529 3.51922 7.82773 3.42123 7.92399C3.32324 8.02025 3.25804 8.15401 3.23739 8.30118L2.50672 13.6219C2.50047 13.6689 2.50311 13.7169 2.51446 13.7626C2.5258 13.8084 2.54557 13.8506 2.5724 13.8866C2.59923 13.9225 2.63248 13.9512 2.66982 13.9707C2.70716 13.9902 2.74771 14 2.78865 13.9995H4.76263C4.87514 14.0003 4.98422 13.9545 5.07032 13.8704C5.15643 13.7862 5.21393 13.6692 5.23252 13.5402L5.25178 13.4253L5.62369 10.7198L5.64719 10.5712C5.66549 10.442 5.72288 10.3247 5.80902 10.2403C5.89517 10.1559 6.00441 10.11 6.11707 10.1109H6.4124C8.32576 10.1109 9.82352 9.22023 10.2612 6.6433C10.444 5.56644 10.3493 4.6676 9.86557 4.03525C9.71161 3.83894 9.52818 3.67685 9.32427 3.55688" fill="#298FC2"/>
<path d="M8.80126 3.31736C8.72482 3.29188 8.64612 3.26876 8.56514 3.24801C8.48362 3.22753 8.40045 3.20924 8.31352 3.1934C7.98906 3.13634 7.66125 3.10895 7.3331 3.11149H4.35874C4.28773 3.11173 4.21765 3.13038 4.15363 3.1661C4.08444 3.20376 4.02423 3.26053 3.97824 3.33143C3.93226 3.40234 3.90189 3.48525 3.88979 3.57292L3.25686 8.16733L3.23877 8.30139C3.25942 8.15422 3.32462 8.02045 3.42261 7.92419C3.52061 7.82793 3.64495 7.7755 3.77326 7.77633H4.88665C7.07326 7.77633 8.78669 6.75791 9.28594 3.8121C9.30098 3.72501 9.31343 3.64009 9.32471 3.55709C9.19259 3.4773 9.05499 3.41045 8.91332 3.35722C8.87738 3.34384 8.83932 3.32992 8.80126 3.31736Z" fill="#22284F"/>
<path d="M3.88943 3.57161C3.90148 3.48399 3.93183 3.40113 3.97783 3.3303C4.02383 3.25947 4.08406 3.20283 4.15327 3.16533C4.21729 3.12962 4.28736 3.11096 4.35837 3.11073H7.33274C7.66127 3.10811 7.98948 3.13549 8.31433 3.19264C8.40008 3.20847 8.48348 3.22649 8.56477 3.24724C8.64606 3.26799 8.72453 3.2912 8.80113 3.31687C8.83919 3.32997 8.87678 3.34417 8.91343 3.35673C9.055 3.40993 9.19258 3.4765 9.32481 3.55578C9.47377 2.4669 9.32364 1.72643 8.81029 1.05421C8.24431 0.316187 7.22278 9.6893e-06 5.91557 9.6893e-06H2.12055C1.99199 -0.000819872 1.86739 0.051643 1.76913 0.147976C1.67086 0.24431 1.60537 0.378202 1.58441 0.525607L0.00371887 12.0137C-0.00335432 12.0674 -0.000313191 12.1222 0.0126323 12.1744C0.0255777 12.2266 0.048119 12.2749 0.0786996 12.316C0.10928 12.3571 0.147171 12.39 0.189756 12.4124C0.232341 12.4349 0.278606 12.4463 0.325355 12.4459H2.6682L3.8899 3.57079" fill="#28356A"/>
</svg>
