<svg width="53" height="19" viewBox="0 0 53 19" fill="none" xmlns="http://www.w3.org/2000/svg">
<path d="M18.7944 18.5603L21.4553 0.691772H25.7113L23.0485 18.5603H18.7944Z" fill="#004F8B"/>
<path d="M38.4849 1.13137C37.2602 0.624432 35.9691 0.370526 34.6696 0.381052C30.4647 0.381052 27.5018 2.80448 27.4769 6.27776C27.4533 8.84537 29.5918 10.2778 31.2054 11.1324C32.8618 12.0079 33.419 12.5668 33.411 13.3487C33.4005 14.5465 32.0882 15.0938 30.8648 15.0938C29.486 15.1406 28.1163 14.8199 26.8598 14.1561L26.3112 13.8718L25.7139 17.8719C26.7081 18.3707 28.5462 18.8032 30.4545 18.8252C34.9282 18.8252 37.832 16.4293 37.8652 12.7202C37.8815 10.6876 36.7478 9.14042 34.2922 7.86556C32.8047 7.03888 31.8935 6.48713 31.9031 5.65039C31.9031 4.90752 32.6741 4.11362 34.3404 4.11362C35.4311 4.08549 36.5151 4.31854 37.5255 4.79837L37.9067 5.00438L38.4849 1.13137Z" fill="#004F8B"/>
<path d="M52.841 18.5666H48.8934C48.8912 18.5554 48.5026 16.5127 48.3752 15.8891C48.0464 15.8891 46.6917 15.8869 45.3817 15.885H45.3523L42.9258 15.8816C42.7604 16.3596 42.0353 18.5442 42.029 18.5662H37.5591L43.8808 2.19046C44.0532 1.68748 44.3712 1.27091 44.7795 1.0132C45.1949 0.788248 45.6507 0.683823 46.108 0.708832H49.3966L52.841 18.5662V18.5666ZM45.844 7.23217C45.8309 7.26942 44.4979 11.2035 44.149 12.2243H47.6802C47.5253 11.411 46.835 7.79881 46.6984 7.08315L46.6949 7.06489L46.4075 5.5244C46.2961 5.87273 46.1441 6.32315 46.0222 6.68526C45.9059 7.03024 45.8402 7.22583 45.8421 7.23142L45.844 7.23217Z" fill="#004F8B"/>
<path d="M15.2249 0.704834L11.0587 12.8902L10.6149 10.4138C9.83935 7.55974 7.42274 4.46758 4.7207 2.91815L8.53064 18.5451L13.0324 18.5391L19.7331 0.704834H15.2249Z" fill="#004F8B"/>
<path d="M7.19367 0.693604H0.331133L0.276855 1.06615C5.61581 2.54443 9.14829 6.11866 10.6147 10.4134L9.12275 2.20205C8.86541 1.07062 8.11766 0.733094 7.19367 0.693604Z" fill="#ED9F2D"/>
</svg>
